REM MD5 9f633bb84c4f35b661f5cb1e56095f83
FILE "Euro Demo Germany 05-02 (Germany).bin" BINARY
  TRACK 01 MODE2/2352
    INDEX 01 00:00:00
  TRACK 02 AUDIO
    INDEX 00 56:31:69
    INDEX 01 56:33:69
  TRACK 03 AUDIO
    INDEX 00 60:56:61
    INDEX 01 60:58:61
  TRACK 04 AUDIO
    INDEX 00 62:57:52
    INDEX 01 62:59:52
  TRACK 05 AUDIO
    INDEX 00 63:45:54
    INDEX 01 63:47:54
  TRACK 06 AUDIO
    INDEX 00 66:00:34
    INDEX 01 66:02:34
REM LEADOUT 69:03:66
